<?xml version="1.0" encoding="UTF-8"?>
<!DOCTYPE svg PUBLIC "-//W3C//DTD SVG 1.1//EN" "http://www.w3.org/Graphics/SVG/1.1/DTD/svg11.dtd">
<!-- Creator: CorelDRAW 2018 (64-Bit Evaluation Version) -->
<svg xmlns="http://www.w3.org/2000/svg" xml:space="preserve" width="69.9357mm" height="31.4186mm" version="1.1" style="shape-rendering:geometricPrecision; text-rendering:geometricPrecision; image-rendering:optimizeQuality; fill-rule:evenodd; clip-rule:evenodd"
viewBox="0 0 18290.82 8217.15"
 xmlns:xlink="http://www.w3.org/1999/xlink">
 <defs>
  <style type="text/css">
   <![CDATA[
    .str0 {stroke:#201E1E;stroke-width:52.31;stroke-miterlimit:22.9256}
    .fil1 {fill:#201E1E}
    .fil0 {fill:#EF812E}
    .fil3 {fill:#201E1E;fill-rule:nonzero}
    .fil2 {fill:#EF812E;fill-rule:nonzero}
   ]]>
  </style>
 </defs>
 <g id="Layer_x0020_1">
  <metadata id="CorelCorpID_0Corel-Layer"/>
  <g id="_1192127121056">
   <polygon class="fil0 str0" points="4762.76,209.88 5344.29,920.9 5925.82,209.88 5475.5,1081.35 10633.36,7387.73 8471.75,7387.73 5344.29,1335.28 2216.79,7387.73 55.18,7387.73 5213.05,1081.35 "/>
   <path class="fil1" d="M10420.84 7127.87l212.53 259.86 -2161.61 0 -134.27 -259.86 2083.36 0zm-8069.77 0l-134.27 259.86 -2161.61 0 212.55 -259.86 2083.33 0z"/>
   <path class="fil1" d="M9890.18 6479.05l231.85 283.48 -1973.33 0 -146.49 -283.48 1887.96 0zm-7203.85 0l-146.49 283.48 -1973.33 0 231.88 -283.48 1887.94 0z"/>
   <path class="fil2 str0" d="M4117.86 6198.97l-305.63 1210.11c71.37,9.28 129.54,13.97 172.98,13.97 65.93,0 147.38,-12.42 245.11,-37.24l-22.49 111.7c-101.61,21.71 -179.96,32.56 -236.59,32.56 -58.95,0 -145.83,-5.41 -260.62,-16.27 -101.63,-10.88 -185.4,-16.29 -252.1,-16.29 -121.04,0 -260.67,17.08 -419.69,51.18l34.16 -125.64c166,-42.68 273.8,-84.56 323.44,-124.91 75.24,-65.15 133.44,-179.94 174.55,-343.63l318.03 -1270.6c39.57,-163.67 59.74,-259.86 59.74,-289.34 0,-27.15 -10.07,-48.1 -28.72,-61.28 -19.38,-13.97 -56.62,-20.16 -112.46,-18.62l29.48 -107.05c153.6,-1.54 337.44,-29.48 552.29,-83.77 -17.84,57.41 -41.87,142.72 -70.59,255.99l-169.87 674.85c72.92,12.42 134.19,18.62 183.83,18.62 188.52,0 350.62,-65.93 484.81,-198.59 134.22,-132.65 201.7,-290.12 201.7,-471.63 0,-141.18 -54.3,-256.75 -162.1,-347.51 -108.62,-90.78 -255.99,-136.52 -442.16,-136.52 -237.37,0 -470.09,57.41 -697.36,172.98 -226.52,114.79 -397.17,258.29 -510.42,428.19 -114.03,170.65 -170.68,349.05 -170.68,536.02 0,141.18 58.19,262.17 173.77,363.8 58.98,49.64 94.65,86.1 108.62,109.38 13.18,22.49 20.16,46.53 20.16,72.92 0,31.8 -11.66,58.95 -34.92,82.99 -24.04,23.28 -51.97,34.92 -85.34,34.92 -81.44,0 -154.36,-48.1 -217.97,-143.51 -81.44,-124.1 -122.56,-277.7 -122.56,-459.23 0,-234.26 64.39,-451.44 193.15,-653.11 128.78,-201.7 324.25,-369.27 585.66,-501.11 260.65,-131.89 536,-197.83 826.12,-197.83 269.17,0 491.04,51.21 665.56,152.82 174.55,101.61 261.41,251.34 261.41,449.9 0,186.97 -79.87,360.71 -239.67,521.3 -159.8,160.56 -379.33,263.73 -659.36,309.5 69.83,138.85 114.03,232.72 133.41,281.6 31.8,81.44 79.93,218.72 145.07,412.65 152.82,453.79 311.83,773.39 475.5,958.77 121.01,135.76 252.1,204 393.27,204 145.86,0 238.94,-65.93 280.03,-196.23 24.06,-83.01 46.55,-134.19 68.29,-154.39 28.69,-27.15 61.28,-40.3 97.74,-40.3 36.46,0 66.72,13.16 92.3,38.79 24.82,25.58 37.24,56.62 37.24,93.06 0,93.11 -51.21,182.29 -154.36,266.85 -103.18,84.56 -235.83,127.24 -397.96,127.24 -147.38,0 -287.77,-35.7 -421.96,-106.29 -134.22,-71.37 -265.3,-186.95 -391.73,-349.05 -126.45,-161.37 -236.61,-355.3 -330.45,-581.03 -47.34,-114.03 -116.38,-321.93 -207.14,-624.42 -54.3,-184.65 -88.43,-294.78 -101.61,-331.24l-54.3 -4.66c-13.21,0 -32.56,1.54 -56.62,4.66z"/>
   <path class="fil2 str0" d="M7250.84 5843.12l-102.6 0c6.56,-99.99 9.86,-180.23 9.86,-240.75 0,-180.88 -38.16,-307.15 -113.8,-378.21 -74.98,-71.69 -170.34,-107.2 -285.47,-107.2 -153.23,0 -313.09,61.83 -478.2,186.14 -165.08,124.31 -307.15,317.69 -426.2,580.8 -119.03,263.11 -178.24,533.43 -178.24,811 0,269.02 55.26,474.9 165.76,618.3 109.82,143.37 248.59,215.06 415.01,215.06 225.63,0 432.79,-134.82 621.57,-405.17 19.09,-26.96 38.84,-40.77 59.87,-40.77 16.45,0 30.91,5.26 42.76,16.45 11.17,10.51 17.1,23.02 17.1,37.48 0,34.86 -42.76,102.6 -128.26,203.92 -85.52,101.29 -193.38,185.48 -323.63,252.57 -129.57,67.74 -257.85,101.29 -383.47,101.29 -151.93,0 -292.71,-39.47 -422.93,-118.4 -130.25,-78.93 -230.86,-192.05 -303.23,-338.09 -71.69,-146.67 -107.86,-320.33 -107.86,-522.26 0,-281.49 73.68,-561.05 221,-839.9 147.32,-278.9 331.5,-493.99 552.5,-645.29 221,-151.93 436.77,-227.56 647.88,-227.56 75.66,0 151.3,8.55 225.63,25 32.22,7.9 164.43,51.97 397.28,132.86 -72.37,220.35 -113.14,447.91 -122.35,682.74z"/>
  </g>
  <path class="fil2" d="M11871.14 3249.06l-383.34 -655.96c277.99,-62.93 421.39,-214.12 421.39,-516.01 0,-440.4 -307.25,-569.16 -825.2,-569.16l-242.89 0c-314.58,0 -453.58,115.57 -453.58,419.92l0 1347.55c0,86.33 48.28,134.61 134.61,134.61l143.4 0c86.31,0 134.59,-48.28 134.59,-134.61l0 -647.2 272.16 0 355.53 685.25c33.66,65.83 83.4,96.56 158.02,96.56l193.15 0c106.81,0 146.3,-67.29 92.17,-160.95zm-1071.02 -941.77l0 -341.41c0,-68.76 19.04,-121.43 119.99,-121.43l209.23 0c279.45,0 367.25,73.15 367.25,229.71 0,157.05 -87.8,233.13 -367.25,233.13l-329.22 0z"/>
  <path id="1" class="fil2" d="M12724.17 3410.01l844.22 0c86.33,0 134.61,-48.28 134.61,-134.61l0 -81.94c0,-86.31 -48.28,-134.61 -134.61,-134.61l-743.26 0c-121.43,0 -141.94,-46.82 -141.94,-121.43l0 -314.58 690.62 0c86.33,0 134.61,-48.28 134.61,-134.12l0 -74.15c0,-85.84 -48.28,-134.12 -134.61,-134.12l-690.62 0 0 -299.46c0,-75.09 20.5,-121.93 141.94,-121.93l690.62 0c86.31,0 134.59,-48.28 134.59,-134.59l0 -81.94c0,-86.33 -48.28,-134.61 -134.59,-134.61l-791.57 0c-314.58,0 -453.58,115.57 -453.58,419.92l0 1062.24c0,304.33 139.01,419.92 453.58,419.92z"/>
  <path id="2" class="fil2" d="M14203.9 3410.01l148.27 0c86.33,0 134.61,-48.28 134.61,-134.61l0 -1632.86c0,-86.33 -48.28,-134.61 -134.61,-134.61l-148.27 0c-86.33,0 -134.61,48.28 -134.61,134.61l0 1632.86c0,86.33 48.28,134.61 134.61,134.61z"/>
  <path id="3" class="fil2" d="M15749.96 1916.13l-757.91 1033c-156.56,213.6 -138.98,460.88 121.46,460.88l1136.85 0c86.33,0 134.61,-48.28 134.61,-134.61l0 -99.49c0,-86.33 -48.28,-134.61 -134.61,-134.61l-778.39 0c-29.27,0 -36.59,-17.55 -20.48,-39.49l756.45 -1034.46c156.56,-212.16 140.45,-459.42 -119.99,-459.42l-1041.76 0c-86.33,0 -134.61,48.28 -134.61,134.61l0 99.49c0,86.33 48.28,134.61 134.61,134.61l683.29 0c29.27,0 36.59,17.55 20.48,39.49z"/>
  <path class="fil3" d="M10358.28 4420.54c0,307.67 206.3,458.19 525.95,380.83 36.59,-9 53.38,-31.18 53.38,-63.58l0 -40.17c0,-38.97 -23.38,-55.76 -63.58,-47.36 -250.08,50.97 -337.04,-28.19 -337.04,-229.71 0,-201.49 86.96,-280.66 337.04,-229.68 40.2,8.4 63.58,-8.4 63.58,-47.39l0 -40.17c0,-32.38 -14.99,-53.98 -47.36,-61.78 -323.26,-80.97 -531.97,69.57 -531.97,379.02z"/>
  <path id="1" class="fil3" d="M11394.6 4820.95c218.31,0 365.24,-139.32 365.24,-400.41 0,-261.07 -146.93,-400.41 -365.24,-400.41 -218.31,0 -365.24,139.35 -365.24,400.41 0,261.09 146.93,400.41 365.24,400.41zm0 -147.14c-110.94,0 -186.53,-59.37 -186.53,-253.27 0,-193.9 75.58,-253.27 186.53,-253.27 110.94,0 186.5,59.37 186.5,253.27 0,193.9 -75.56,253.27 -186.5,253.27z"/>
  <path id="2" class="fil3" d="M11948.14 4810.36l53.98 0c35.39,0 55.16,-19.8 55.16,-55.18l-2.38 -506.76c0,-14.38 2.98,-21.58 13.18,-21.58 7.19,0 12,4.18 17.99,17.99l192.91 432.37c53.98,116.96 100.35,133.15 173.5,133.15 101.97,0 139.74,-31.18 139.74,-150.54l0 -573.92c0,-35.39 -19.77,-55.18 -55.16,-55.18l-53.98 0c-35.39,0 -55.18,19.8 -55.18,55.18l2.41 506.76c0,14.41 -3.01,21.6 -13.18,21.6 -7.22,0 -12,-4.21 -17.99,-17.99l-192.91 -432.4c-53.98,-116.96 -100.35,-133.15 -173.53,-133.15 -101.95,0 -139.74,31.2 -139.74,150.54l0 573.92c0,35.39 19.8,55.18 55.18,55.18z"/>
  <path id="3" class="fil3" d="M13308.11 4030.92l-558.54 0c-35.39,0 -55.18,19.8 -55.18,55.18l0 41.56c0,35.39 19.8,55.18 55.18,55.18l193.72 0 0 572.32c0,35.39 19.77,55.18 55.16,55.18l60.78 0c35.39,0 55.16,-19.8 55.16,-55.18l0 -572.32 193.72 0c35.39,0 55.18,-19.8 55.18,-55.18l0 -41.56c0,-35.39 -19.8,-55.18 -55.18,-55.18z"/>
  <path id="4" class="fil3" d="M13534 4810.36l60.78 0c35.39,0 55.18,-19.8 55.18,-55.18l0 -669.27c0,-35.39 -19.8,-55.18 -55.18,-55.18l-60.78 0c-35.39,0 -55.16,19.8 -55.16,55.18l0 669.27c0,35.39 19.77,55.18 55.16,55.18z"/>
  <path id="5" class="fil3" d="M13891.84 4810.36l53.98 0c35.39,0 55.16,-19.8 55.16,-55.18l-2.38 -506.76c0,-14.38 2.98,-21.58 13.18,-21.58 7.19,0 12,4.18 17.99,17.99l192.91 432.37c53.98,116.96 100.35,133.15 173.5,133.15 101.97,0 139.74,-31.18 139.74,-150.54l0 -573.92c0,-35.39 -19.77,-55.18 -55.16,-55.18l-53.98 0c-35.39,0 -55.18,19.8 -55.18,55.18l2.41 506.76c0,14.41 -3.01,21.6 -13.18,21.6 -7.22,0 -12,-4.21 -17.99,-17.99l-192.91 -432.4c-53.98,-116.96 -100.35,-133.15 -173.53,-133.15 -101.95,0 -139.74,31.2 -139.74,150.54l0 573.92c0,35.39 19.8,55.18 55.18,55.18z"/>
  <path id="6" class="fil3" d="M14889.18 4810.36l346.04 0c35.39,0 55.16,-19.8 55.16,-55.18l0 -33.58c0,-35.39 -19.77,-55.16 -55.16,-55.16l-304.67 0c-49.77,0 -58.17,-19.2 -58.17,-49.8l0 -128.94 283.06 0c35.39,0 55.16,-19.77 55.16,-54.98l0 -30.36c0,-35.2 -19.77,-54.98 -55.16,-54.98l-283.06 0 0 -122.74c0,-30.81 8.4,-49.98 58.17,-49.98l283.06 0c35.39,0 55.18,-19.8 55.18,-55.18l0 -33.58c0,-35.39 -19.8,-55.18 -55.18,-55.18l-324.44 0c-128.94,0 -185.93,47.39 -185.93,172.12l0 435.41c0,124.73 56.99,172.12 185.93,172.12z"/>
  <path id="7" class="fil3" d="M15476.31 4810.36l53.98 0c35.39,0 55.16,-19.8 55.16,-55.18l-2.38 -506.76c0,-14.38 2.98,-21.58 13.18,-21.58 7.19,0 12,4.18 17.99,17.99l192.91 432.37c53.98,116.96 100.35,133.15 173.5,133.15 101.97,0 139.74,-31.18 139.74,-150.54l0 -573.92c0,-35.39 -19.77,-55.18 -55.16,-55.18l-53.98 0c-35.39,0 -55.18,19.8 -55.18,55.18l2.41 506.76c0,14.41 -3.01,21.6 -13.18,21.6 -7.22,0 -12,-4.21 -17.99,-17.99l-192.91 -432.4c-53.98,-116.96 -100.35,-133.15 -173.53,-133.15 -101.95,0 -139.74,31.2 -139.74,150.54l0 573.92c0,35.39 19.8,55.18 55.18,55.18z"/>
  <path id="8" class="fil3" d="M16836.28 4030.92l-558.54 0c-35.39,0 -55.18,19.8 -55.18,55.18l0 41.56c0,35.39 19.8,55.18 55.18,55.18l193.72 0 0 572.32c0,35.39 19.77,55.18 55.16,55.18l60.78 0c35.39,0 55.16,-19.8 55.16,-55.18l0 -572.32 193.72 0c35.39,0 55.18,-19.8 55.18,-55.18l0 -41.56c0,-35.39 -19.8,-55.18 -55.18,-55.18z"/>
  <path id="9" class="fil3" d="M17526.56 4810.36l62.38 0c39.6,0 57.56,-24.58 46.19,-62.38l-158.94 -529.14c-41.38,-149.52 -102.55,-198.72 -221.89,-198.72 -119.55,0 -178.32,49.77 -222.1,198.72l-158.94 529.14c-11.38,37.79 6.62,62.38 46.19,62.38l61.78 0c32.38,0 52.78,-15.59 61.78,-46.79l43.18 -153.52 335.45 0 43.18 153.52c8.97,31.2 29.37,46.79 61.75,46.79zm-144.53 -340.65l-256.28 0 66.56 -236.48c15.61,-52.78 30.6,-68.37 61.98,-68.37 31.18,0 46.19,15.59 61.78,68.37l65.96 236.48z"/>
  <path id="10" class="fil3" d="M17937.59 4810.36l298.05 0c35.39,0 55.18,-19.8 55.18,-55.18l0 -41.98c0,-35.39 -19.8,-55.16 -55.18,-55.16l-256.67 0c-49.77,0 -58.17,-22.2 -58.17,-50.4l0 -521.74c0,-35.39 -19.8,-55.18 -55.18,-55.18l-58.77 0c-35.39,0 -55.18,19.8 -55.18,55.18l0 552.34c0,124.73 56.99,172.12 185.93,172.12z"/>
  <path class="fil3" d="M10977.29 5316.38l0 249.69 -361.03 0 0 -249.69c0,-35.39 -19.8,-55.18 -55.18,-55.18l-58.77 0c-35.39,0 -55.18,19.8 -55.18,55.18l0 669.27c0,35.39 19.8,55.18 55.18,55.18l58.77 0c35.39,0 55.18,-19.8 55.18,-55.18l0 -267.66 361.03 0 0 267.66c0,35.39 19.8,55.18 55.16,55.18l58.79 0c35.39,0 55.16,-19.8 55.16,-55.18l0 -669.27c0,-35.39 -19.77,-55.18 -55.16,-55.18l-58.79 0c-35.36,0 -55.16,19.8 -55.16,55.18z"/>
  <path id="1" class="fil3" d="M11645.38 6051.43c218.31,0 365.24,-139.32 365.24,-400.41 0,-261.07 -146.93,-400.41 -365.24,-400.41 -218.31,0 -365.24,139.35 -365.24,400.41 0,261.09 146.93,400.41 365.24,400.41zm0 -147.14c-110.94,0 -186.53,-59.37 -186.53,-253.27 0,-193.9 75.58,-253.27 186.53,-253.27 110.94,0 186.5,59.37 186.5,253.27 0,193.9 -75.56,253.27 -186.5,253.27z"/>
  <path id="2" class="fil3" d="M12674.3 5261.41l-558.54 0c-35.39,0 -55.18,19.8 -55.18,55.18l0 41.56c0,35.39 19.8,55.18 55.18,55.18l193.72 0 0 572.32c0,35.39 19.77,55.18 55.16,55.18l60.78 0c35.39,0 55.16,-19.8 55.16,-55.18l0 -572.32 193.72 0c35.39,0 55.18,-19.8 55.18,-55.18l0 -41.56c0,-35.39 -19.8,-55.18 -55.18,-55.18z"/>
  <path id="3" class="fil3" d="M13011.55 6040.84l346.04 0c35.39,0 55.16,-19.8 55.16,-55.18l0 -33.58c0,-35.39 -19.77,-55.16 -55.16,-55.16l-304.67 0c-49.77,0 -58.17,-19.2 -58.17,-49.8l0 -128.94 283.06 0c35.39,0 55.16,-19.77 55.16,-54.98l0 -30.36c0,-35.2 -19.77,-54.98 -55.16,-54.98l-283.06 0 0 -122.74c0,-30.81 8.4,-49.98 58.17,-49.98l283.06 0c35.39,0 55.18,-19.8 55.18,-55.18l0 -33.58c0,-35.39 -19.8,-55.18 -55.18,-55.18l-324.44 0c-128.94,0 -185.93,47.39 -185.93,172.12l0 435.41c0,124.73 56.99,172.12 185.93,172.12z"/>
  <path id="4" class="fil3" d="M13729.42 6040.84l298.05 0c35.39,0 55.18,-19.8 55.18,-55.18l0 -41.98c0,-35.39 -19.8,-55.16 -55.18,-55.16l-256.67 0c-49.77,0 -58.17,-22.2 -58.17,-50.4l0 -521.74c0,-35.39 -19.8,-55.18 -55.18,-55.18l-58.77 0c-35.39,0 -55.18,19.8 -55.18,55.18l0 552.34c0,124.73 56.99,172.12 185.93,172.12z"/>
  <path id="5" class="fil3" d="M14202.2 6025.25c248.28,60.57 508.95,19.8 508.95,-201.91 0,-112.15 -64.16,-176.93 -214.49,-240.3l-69.57 -29.37c-75.98,-30.6 -98.76,-58.77 -98.76,-93.55 0,-78.38 133.54,-76.58 277.28,-52.6 38.37,6.41 61.17,-11.98 61.17,-49.77l0 -24.58c0,-32.98 -15.61,-53.38 -47.99,-61.17 -243.07,-56.36 -459.18,-6.59 -459.18,191.11 0,98.97 53.38,166.13 202.3,230.1l74.77 32.38c83.95,34.18 105.35,61.78 105.35,97.76 0,97.55 -172.93,97.55 -326.06,69.36 -38.37,-7.19 -61.15,10.2 -61.15,48.59l0 22.78c0,32.38 14.99,53.38 47.36,61.17z"/>
 </g>
</svg>
